# Alias OBJ Model File
# Exported from SketchUp, (c) 2000-2012 Trimble Navigation Limited
# File units = meters

mtllib cube.mtl

g Mesh1 Group1 Model

usemtl FrontColor
v -0.0786158 0 -0.267405
vt -39.3701 0
vn 0 0 -1
v -1.14502 0 -0.267405
vt 0 0
v -1.14502 1 -0.267405
vt 0 39.3701
v -0.0786158 1 -0.267405
vt -39.3701 39.3701
f 1/1/1 2/2/1 3/3/1 4/4/1 

v -1.14502 0 0.556595
vn 0 -1 -0
v -0.0786158 0 0.556595
f 5/2/2 2/3/2 1/4/2 6/1/2 

vn -1 0 -0
v -1.14502 1 0.556595
f 2/1/3 5/2/3 7/3/3 3/4/3 

vn 0 0 1
vt 39.3701 0
v -0.0786158 1 0.556595
vt 39.3701 39.3701
f 5/2/4 6/5/4 8/6/4 7/3/4 

vn 1 0 -0
f 6/2/5 1/5/5 4/6/5 8/3/5 

vn 0 1 -0
f 3/3/6 7/2/6 8/5/6 4/6/6 

g Mesh2 Group2 Model

v 0.987784 0 -0.267405
v -0.0786158 0 -0.267405
v -0.0786158 2.75 -0.267405
v 0.987784 2.75 -0.267405
f 9/1/1 10/2/1 11/3/1 12/4/1 

v -0.0786158 0 1.13339
v 0.987784 0 1.13339
f 13/2/2 10/3/2 9/4/2 14/1/2 

v -0.0786158 2.75 1.13339
f 10/1/3 13/2/3 15/3/3 11/4/3 

v 0.987784 2.75 1.13339
f 13/2/4 14/5/4 16/6/4 15/3/4 

f 14/2/5 9/5/5 12/6/5 16/3/5 

f 11/3/6 15/2/6 16/5/6 12/6/6 

g Mesh3 Group3 Model

v -0.430528 0 -2.85386
v -1.14502 0 -2.85386
v -1.14502 0.335 -2.85386
v -0.430528 0.335 -2.85386
f 17/1/1 18/2/1 19/3/1 20/4/1 

v -1.14502 0 1.38059
v -0.430528 0 1.38059
f 21/2/2 18/3/2 17/4/2 22/1/2 

v -1.14502 0.335 1.38059
f 18/1/3 21/2/3 23/3/3 19/4/3 

v -0.430528 0.335 1.38059
f 21/2/4 22/5/4 24/6/4 23/3/4 

f 22/2/5 17/5/5 20/6/5 24/3/5 

f 19/3/6 23/2/6 24/5/6 20/6/6 

g Mesh4 Group4 Model

v -0.765299 -1.7875 -2.06335
v -1.8317 -1.7875 -2.06335
v -1.8317 1.7875 -2.06335
v -0.765299 1.7875 -2.06335
f 25/1/1 26/2/1 27/3/1 28/4/1 

v -1.8317 -1.7875 -0.662548
v -0.765299 -1.7875 -0.662548
f 29/2/2 26/3/2 25/4/2 30/1/2 

v -1.8317 1.7875 -0.662548
f 26/1/3 29/2/3 31/3/3 27/4/3 

v -0.765299 1.7875 -0.662548
f 29/2/4 30/5/4 32/6/4 31/3/4 

f 30/2/5 25/5/5 28/6/5 32/3/5 

f 27/3/6 31/2/6 32/5/6 28/6/6 

g Mesh5 Group5 Model

v -1.8317 0 -1.65135
v -2.3649 0 -1.65135
v -2.3649 0.5 -1.65135
v -1.8317 0.5 -1.65135
f 33/1/1 34/2/1 35/3/1 36/4/1 

v -2.3649 0 0.0625721
v -1.8317 0 0.0625721
f 37/2/2 34/3/2 33/4/2 38/1/2 

v -2.3649 0.5 0.0625721
f 34/1/3 37/2/3 39/3/3 35/4/3 

v -1.8317 0.5 0.0625721
f 37/2/4 38/5/4 40/6/4 39/3/4 

f 38/2/5 33/5/5 36/6/5 40/3/5 

f 35/3/6 39/2/6 40/5/6 36/6/6 

g Mesh6 Group6 Model

v -0.611816 1 0.144595
v -1.14502 1 0.144595
v -1.14502 1.5 0.144595
v -0.611816 1.5 0.144595
f 41/1/1 42/2/1 43/3/1 44/4/1 

v -0.611816 1 0.556595
f 7/2/2 42/3/2 41/4/2 45/1/2 

v -1.14502 1.5 0.556595
f 42/1/3 7/2/3 46/3/3 43/4/3 

v -0.611816 1.5 0.556595
f 7/2/4 45/5/4 47/6/4 46/3/4 

f 45/2/5 41/5/5 44/6/5 47/3/5 

f 43/3/6 46/2/6 47/5/6 44/6/6 

g Mesh7 Group7 Model

v 0.454584 2.365 0.721395
v -0.48918 2.365 0.721395
v -0.48918 3.25 0.721395
v 0.454584 3.25 0.721395
f 48/1/1 49/2/1 50/3/1 51/4/1 

v -0.48918 2.365 1.45064
v 0.454584 2.365 1.45064
f 52/2/2 49/3/2 48/4/2 53/1/2 

v -0.48918 3.25 1.45064
f 49/1/3 52/2/3 54/3/3 50/4/3 

v 0.454584 3.25 1.45064
f 52/2/4 53/5/4 55/6/4 54/3/4 

f 53/2/5 48/5/5 51/6/5 55/3/5 

f 50/3/6 54/2/6 55/5/6 51/6/6 

g Mesh8 Group8 Model

v 0.113336 -0.345 0.968595
v -1.14502 -0.345 0.968595
v -1.14502 0.1675 0.968595
v 0.113336 0.1675 0.968595
f 56/1/1 57/2/1 58/3/1 59/4/1 

v -1.14502 -0.345 1.94091
v 0.113336 -0.345 1.94091
f 60/2/2 57/3/2 56/4/2 61/1/2 

v -1.14502 0.1675 1.94091
f 57/1/3 60/2/3 62/3/3 58/4/3 

v 0.113336 0.1675 1.94091
f 60/2/4 61/5/4 63/6/4 62/3/4 

f 61/2/5 56/5/5 59/6/5 63/3/5 

f 58/3/6 62/2/6 63/5/6 59/6/6 

g Mesh9 Group9 Model

v -0.765299 -1.7875 -0.662548
v -1.8317 -1.7875 -0.662548
v -1.8317 -0.7875 -0.662548
v -0.765299 -0.7875 -0.662548
f 64/1/1 65/2/1 66/3/1 67/4/1 

v -1.8317 -1.7875 0.161452
v -0.765299 -1.7875 0.161452
f 68/2/2 65/3/2 64/4/2 69/1/2 

v -1.8317 -0.7875 0.161452
f 65/1/3 68/2/3 70/3/3 66/4/3 

v -0.765299 -0.7875 0.161452
f 68/2/4 69/5/4 71/6/4 70/3/4 

f 69/2/5 64/5/5 67/6/5 71/3/5 

f 66/3/6 70/2/6 71/5/6 67/6/6 

g Mesh10 Group10 Model

v -0.765299 0.7875 -0.662548
v -1.8317 0.7875 -0.662548
v -1.8317 1.7875 -0.662548
v -0.765299 1.7875 -0.662548
f 72/1/1 73/2/1 74/3/1 75/4/1 

v -1.8317 0.7875 0.161452
v -0.765299 0.7875 0.161452
f 76/2/2 73/3/2 72/4/2 77/1/2 

v -1.8317 1.7875 0.161452
f 73/1/3 76/2/3 78/3/3 74/4/3 

v -0.765299 1.7875 0.161452
f 76/2/4 77/5/4 79/6/4 78/3/4 

f 77/2/5 72/5/5 75/6/5 79/3/5 

f 74/3/6 78/2/6 79/5/6 75/6/6 

g Mesh11 Group11 Model

v -1.2985 -2.5375 -0.827348
v -1.8317 -2.5375 -0.827348
v -1.8317 -2.0375 -0.827348
v -1.2985 -2.0375 -0.827348
f 80/1/1 81/2/1 82/3/1 83/4/1 

v -1.8317 -2.5375 -0.415348
v -1.2985 -2.5375 -0.415348
f 84/2/2 81/3/2 80/4/2 85/1/2 

v -1.8317 -2.0375 -0.415348
f 81/1/3 84/2/3 86/3/3 82/4/3 

v -1.2985 -2.0375 -0.415348
f 84/2/4 85/5/4 87/6/4 86/3/4 

f 85/2/5 80/5/5 83/6/5 87/3/5 

f 82/3/6 86/2/6 87/5/6 83/6/6 

g Mesh12 Group12 Model

v 2.4061 0 0.721395
v -2.74462 0 0.721395
v -2.74462 0.5 0.721395
v 2.4061 0.5 0.721395
f 88/1/1 89/2/1 90/3/1 91/4/1 

v -2.74462 0 1.13339
v 2.4061 0 1.13339
f 92/2/2 89/3/2 88/4/2 93/1/2 

v -2.74462 0.5 1.13339
f 89/1/3 92/2/3 94/3/3 90/4/3 

v 2.4061 0.5 1.13339
f 92/2/4 93/5/4 95/6/4 94/3/4 

f 93/2/5 88/5/5 91/6/5 95/3/5 

f 90/3/6 94/2/6 95/5/6 91/6/6 

g Mesh13 Group13 Model

v -0.96906 2.20285 2.44051
v -1.14502 2.20285 2.44051
v -1.14502 0.835 2.44051
v -0.96906 0.835 2.44051
f 96/4/4 97/3/4 98/2/4 99/1/4 

v -0.96906 2.20285 1.38059
v -1.14502 2.20285 1.38059
f 96/6/6 100/5/6 101/2/6 97/3/6 

v -0.96906 0.835 1.38059
f 100/3/5 96/6/5 99/5/5 102/2/5 

v -1.14502 0.835 1.38059
f 102/1/2 99/4/2 98/3/2 103/2/2 

f 97/4/3 101/3/3 103/2/3 98/1/3 

f 101/3/1 100/6/1 102/5/1 103/2/1 

g Mesh14 Group14 Model

v 0.0973402 3.25 0.997435
v -0.0786158 3.25 0.997435
v -0.0786158 3.415 0.997435
v 0.0973402 3.415 0.997435
f 104/1/1 105/2/1 106/3/1 107/4/1 

v -0.0786158 3.25 1.13339
v 0.0973402 3.25 1.13339
f 108/2/2 105/3/2 104/4/2 109/1/2 

v -0.0786158 3.415 1.13339
f 105/1/3 108/2/3 110/3/3 106/4/3 

v 0.0973402 3.415 1.13339
f 108/2/4 109/5/4 111/6/4 110/3/4 

f 109/2/5 104/5/5 107/6/5 111/3/5 

f 106/3/6 110/2/6 111/5/6 107/6/6 

g Mesh15 Group15 Model

v 0.63054 2.75 0.997435
v 0.454584 2.75 0.997435
v 0.454584 2.915 0.997435
v 0.63054 2.915 0.997435
f 112/1/1 113/2/1 114/3/1 115/4/1 

v 0.454584 2.75 1.13339
v 0.63054 2.75 1.13339
f 116/2/2 113/3/2 112/4/2 117/1/2 

v 0.454584 2.915 1.13339
f 113/1/3 116/2/3 118/3/3 114/4/3 

v 0.63054 2.915 1.13339
f 116/2/4 117/5/4 119/6/4 118/3/4 

f 117/2/5 112/5/5 115/6/5 119/3/5 

f 114/3/6 118/2/6 119/5/6 115/6/6 

g Mesh16 Group16 Model

v -1.65574 1.7875 0.0254921
v -1.8317 1.7875 0.0254921
v -1.8317 1.9525 0.0254921
v -1.65574 1.9525 0.0254921
f 120/1/1 121/2/1 122/3/1 123/4/1 

v -1.65574 1.7875 0.161452
f 78/2/2 121/3/2 120/4/2 124/1/2 

v -1.8317 1.9525 0.161452
f 121/1/3 78/2/3 125/3/3 122/4/3 

v -1.65574 1.9525 0.161452
f 78/2/4 124/5/4 126/6/4 125/3/4 

f 124/2/5 120/5/5 123/6/5 126/3/5 

f 122/3/6 125/2/6 126/5/6 123/6/6 

g Mesh17 Group17 Model

v -1.47979 1.7875 0.0254921
v -1.47979 1.9525 0.0254921
f 127/1/1 120/2/1 123/3/1 128/4/1 

v -1.47979 1.7875 0.161452
f 124/2/2 120/3/2 127/4/2 129/1/2 

f 120/1/3 124/2/3 126/3/3 123/4/3 

v -1.47979 1.9525 0.161452
f 124/2/4 129/5/4 130/6/4 126/3/4 

f 129/2/5 127/5/5 128/6/5 130/3/5 

f 123/3/6 126/2/6 130/5/6 128/6/6 

g Mesh18 Group18 Model

v -1.8317 2.1175 0.0254921
v -1.65574 2.1175 0.0254921
f 123/1/1 122/2/1 131/3/1 132/4/1 

f 125/2/2 122/3/2 123/4/2 126/1/2 

v -1.8317 2.1175 0.161452
f 122/1/3 125/2/3 133/3/3 131/4/3 

v -1.65574 2.1175 0.161452
f 125/2/4 126/5/4 134/6/4 133/3/4 

f 126/2/5 123/5/5 132/6/5 134/3/5 

f 131/3/6 133/2/6 134/5/6 132/6/6 

g Mesh19 Group19 Model

v 1.61176 1.7875 0.0254921
v -2.65458 1.7875 0.0254921
v -2.65458 2.0152 0.0254921
v 1.61176 2.0152 0.0254921
f 135/1/1 136/2/1 137/3/1 138/4/1 

v -2.65458 1.7875 0.213117
v 1.61176 1.7875 0.213117
f 139/2/2 136/3/2 135/4/2 140/1/2 

v -2.65458 2.0152 0.213117
f 136/1/3 139/2/3 141/3/3 137/4/3 

v 1.61176 2.0152 0.213117
f 139/2/4 140/5/4 142/6/4 141/3/4 

f 140/2/5 135/5/5 138/6/5 142/3/5 

f 137/3/6 141/2/6 142/5/6 138/6/6 

g Mesh20 Group20 Model

v -1.33349 -0.5 0.398959
v -2.39989 -0.5 0.398959
v -2.39989 0.5 0.398959
v -1.33349 0.5 0.398959
f 143/1/1 144/2/1 145/3/1 146/4/1 

v -2.39989 -0.5 1.22296
v -1.33349 -0.5 1.22296
f 147/2/2 144/3/2 143/4/2 148/1/2 

v -2.39989 0.5 1.22296
f 144/1/3 147/2/3 149/3/3 145/4/3 

v -1.33349 0.5 1.22296
f 147/2/4 148/5/4 150/6/4 149/3/4 

f 148/2/5 143/5/5 146/6/5 150/3/5 

f 145/3/6 149/2/6 150/5/6 146/6/6 

g Mesh21 Group21 Model

v 0.125736 -1.30805 -0.267405
v -0.940664 -1.30805 -0.267405
v -0.940664 -0.180552 -0.267405
v 0.125736 -0.180552 -0.267405
f 151/1/1 152/2/1 153/3/1 154/4/1 

v -0.940664 -1.30805 1.13339
v 0.125736 -1.30805 1.13339
f 155/2/2 152/3/2 151/4/2 156/1/2 

v -0.940664 -0.180552 1.13339
f 152/1/3 155/2/3 157/3/3 153/4/3 

v 0.125736 -0.180552 1.13339
f 155/2/4 156/5/4 158/6/4 157/3/4 

f 156/2/5 151/5/5 154/6/5 158/3/5 

f 153/3/6 157/2/6 158/5/6 154/6/6 

g Mesh22 Group22 Model

v -0.765299 -1.26609 0.217468
v -1.50112 -1.26609 0.217468
v -1.50112 -0.576093 0.217468
v -0.765299 -0.576093 0.217468
f 159/1/1 160/2/1 161/3/1 162/4/1 

v -1.50112 -1.26609 0.786028
v -0.765299 -1.26609 0.786028
f 163/2/2 160/3/2 159/4/2 164/1/2 

v -1.50112 -0.576093 0.786028
f 160/1/3 163/2/3 165/3/3 161/4/3 

v -0.765299 -0.576093 0.786028
f 163/2/4 164/5/4 166/6/4 165/3/4 

f 164/2/5 159/5/5 162/6/5 166/3/5 

f 161/3/6 165/2/6 166/5/6 162/6/6 

g Mesh23 Group23 Model

v -1.89488 -1.26609 -1.66667
v -2.63069 -1.26609 -1.66667
v -2.63069 -0.576093 -1.66667
v -1.89488 -0.576093 -1.66667
f 167/1/1 168/2/1 169/3/1 170/4/1 

v -2.63069 -1.26609 -1.09811
v -1.89488 -1.26609 -1.09811
f 171/2/2 168/3/2 167/4/2 172/1/2 

v -2.63069 -0.576093 -1.09811
f 168/1/3 171/2/3 173/3/3 169/4/3 

v -1.89488 -0.576093 -1.09811
f 171/2/4 172/5/4 174/6/4 173/3/4 

f 172/2/5 167/5/5 170/6/5 174/3/5 

f 169/3/6 173/2/6 174/5/6 170/6/6 

g Mesh24 Group24 Model

v -1.8317 1.0975 -1.23111
v -2.56752 1.0975 -1.23111
v -2.56752 1.7875 -1.23111
v -1.8317 1.7875 -1.23111
f 175/1/1 176/2/1 177/3/1 178/4/1 

v -2.56752 1.0975 -0.662548
v -1.8317 1.0975 -0.662548
f 179/2/2 176/3/2 175/4/2 180/1/2 

v -2.56752 1.7875 -0.662548
f 176/1/3 179/2/3 181/3/3 177/4/3 

v -1.8317 1.7875 -0.662548
f 179/2/4 180/5/4 182/6/4 181/3/4 

f 180/2/5 175/5/5 178/6/5 182/3/5 

f 177/3/6 181/2/6 182/5/6 178/6/6 

g Mesh25 Group25 Model

v -2.54952 2.117 1.97495
v -2.74462 2.117 1.97495
v -2.74462 0.5 1.97495
v -2.54952 0.5 1.97495
f 183/4/4 184/3/4 185/2/4 186/1/4 

v -2.54952 2.117 0.857355
v -2.74462 2.117 0.857355
f 183/6/6 187/5/6 188/2/6 184/3/6 

v -2.54952 0.5 0.857355
f 187/3/5 183/6/5 186/5/5 189/2/5 

v -2.74462 0.5 0.857355
f 189/1/2 186/4/2 185/3/2 190/2/2 

f 184/4/3 188/3/3 190/2/3 185/1/3 

f 188/3/1 187/6/1 189/5/1 190/2/1 

g Mesh26 Group26 Model

v -2.18894 0.5 -1.58131
v -3.26931 0.5 -1.58131
v -3.26931 0.665 -1.58131
v -2.18894 0.665 -1.58131
f 191/1/1 192/2/1 193/3/1 194/4/1 

v -3.26931 0.5 -0.126536
v -2.18894 0.5 -0.126536
f 195/2/2 192/3/2 191/4/2 196/1/2 

v -3.26931 0.665 -0.126536
f 192/1/3 195/2/3 197/3/3 193/4/3 

v -2.18894 0.665 -0.126536
f 195/2/4 196/5/4 198/6/4 197/3/4 

f 196/2/5 191/5/5 194/6/5 198/3/5 

f 193/3/6 197/2/6 198/5/6 194/6/6 

g Mesh27 Group27 Model

v -2.45474 -0.576093 -1.56845
v -2.63069 -0.576093 -1.56845
v -2.63069 -0.411093 -1.56845
v -2.45474 -0.411093 -1.56845
f 199/1/1 200/2/1 201/3/1 202/4/1 

v -2.63069 -0.576093 -1.43249
v -2.45474 -0.576093 -1.43249
f 203/2/2 200/3/2 199/4/2 204/1/2 

v -2.63069 -0.411093 -1.43249
f 200/1/3 203/2/3 205/3/3 201/4/3 

v -2.45474 -0.411093 -1.43249
f 203/2/4 204/5/4 206/6/4 205/3/4 

f 204/2/5 199/5/5 202/6/5 206/3/5 

f 201/3/6 205/2/6 206/5/6 202/6/6 

g Mesh28 Group28 Model

v -1.65574 0.679393 -1.23111
v -1.94255 0.679393 -1.23111
v -1.94255 3.5464 -1.23111
v -1.65574 3.5464 -1.23111
f 207/1/1 208/2/1 209/3/1 210/4/1 

v -1.94255 0.679393 -1.00949
v -1.65574 0.679393 -1.00949
f 211/2/2 208/3/2 207/4/2 212/1/2 

v -1.94255 3.5464 -1.00949
f 208/1/3 211/2/3 213/3/3 209/4/3 

v -1.65574 3.5464 -1.00949
f 211/2/4 212/5/4 214/6/4 213/3/4 

f 212/2/5 207/5/5 210/6/5 214/3/5 

f 209/3/6 213/2/6 214/5/6 210/6/6 

g Mesh29 Group29 Model

v 1.52098 1.43813 0.461273
v -1.04904 1.43813 0.461273
v -1.04904 1.93813 0.461273
v 1.52098 1.93813 0.461273
f 215/1/1 216/2/1 217/3/1 218/4/1 

v -1.04904 1.43813 0.873273
v 1.52098 1.43813 0.873273
f 219/2/2 216/3/2 215/4/2 220/1/2 

v -1.04904 1.93813 0.873273
f 216/1/3 219/2/3 221/3/3 217/4/3 

v 1.52098 1.93813 0.873273
f 219/2/4 220/5/4 222/6/4 221/3/4 

f 220/2/5 215/5/5 218/6/5 222/3/5 

f 217/3/6 221/2/6 222/5/6 218/6/6 

g Mesh30 Group30 Model

v 1.16374 1.93813 0.737313
v 0.987784 1.93813 0.737313
v 0.987784 2.10313 0.737313
v 1.16374 2.10313 0.737313
f 223/1/1 224/2/1 225/3/1 226/4/1 

v 0.987784 1.93813 0.873273
v 1.16374 1.93813 0.873273
f 227/2/2 224/3/2 223/4/2 228/1/2 

v 0.987784 2.10313 0.873273
f 224/1/3 227/2/3 229/3/3 225/4/3 

v 1.16374 2.10313 0.873273
f 227/2/4 228/5/4 230/6/4 229/3/4 

f 228/2/5 223/5/5 226/6/5 230/3/5 

f 225/3/6 229/2/6 230/5/6 226/6/6 

g Mesh31 Group31 Model

v 1.16374 0.335 1.13339
v 0.987784 0.335 1.13339
v 0.987784 0.5 1.13339
v 1.16374 0.5 1.13339
f 231/1/1 232/2/1 233/3/1 234/4/1 

v 0.987784 0.335 1.26935
v 1.16374 0.335 1.26935
f 235/2/2 232/3/2 231/4/2 236/1/2 

v 0.987784 0.5 1.26935
f 232/1/3 235/2/3 237/3/3 233/4/3 

v 1.16374 0.5 1.26935
f 235/2/4 236/5/4 238/6/4 237/3/4 

f 236/2/5 231/5/5 234/6/5 238/3/5 

f 233/3/6 237/2/6 238/5/6 234/6/6 

g Mesh32 Group32 Model

v -0.611816 1.08474 1.22121
v -2.74462 1.08474 1.22121
v -2.74462 1.58474 1.22121
v -0.611816 1.58474 1.22121
f 239/1/1 240/2/1 241/3/1 242/4/1 

v -2.74462 1.08474 1.63321
v -0.611816 1.08474 1.63321
f 243/2/2 240/3/2 239/4/2 244/1/2 

v -2.74462 1.58474 1.63321
f 240/1/3 243/2/3 245/3/3 241/4/3 

v -0.611816 1.58474 1.63321
f 243/2/4 244/5/4 246/6/4 245/3/4 

f 244/2/5 239/5/5 242/6/5 246/3/5 

f 241/3/6 245/2/6 246/5/6 242/6/6 

g Mesh33 Group33 Model

v 0.987784 -0.396277 -0.48902
v 0.700976 -0.396277 -0.48902
v 0.700976 2.47073 -0.48902
v 0.987784 2.47073 -0.48902
f 247/1/1 248/2/1 249/3/1 250/4/1 

v 0.700976 -0.396277 -0.267405
v 0.987784 -0.396277 -0.267405
f 251/2/2 248/3/2 247/4/2 252/1/2 

v 0.700976 2.47073 -0.267405
f 248/1/3 251/2/3 253/3/3 249/4/3 

v 0.987784 2.47073 -0.267405
f 251/2/4 252/5/4 254/6/4 253/3/4 

f 252/2/5 247/5/5 250/6/5 254/3/5 

f 249/3/6 253/2/6 254/5/6 250/6/6 

g Mesh34 Group34 Model

v 0.485185 0.655761 -1.44337
v -1.05211 0.655761 -1.44337
v -1.05211 1.37251 -1.44337
v 0.485185 1.37251 -1.44337
f 255/1/1 256/2/1 257/3/1 258/4/1 

v -1.05211 0.655761 -0.931444
v 0.485185 0.655761 -0.931444
f 259/2/2 256/3/2 255/4/2 260/1/2 

v -1.05211 1.37251 -0.931444
f 256/1/3 259/2/3 261/3/3 257/4/3 

v 0.485185 1.37251 -0.931444
f 259/2/4 260/5/4 262/6/4 261/3/4 

f 260/2/5 255/5/5 258/6/5 262/3/5 

f 257/3/6 261/2/6 262/5/6 258/6/6 

